<?xml version="1.0" encoding="UTF-8"?>
<svg width="107px" height="103px" viewBox="0 0 107 103" version="1.1" xmlns="http://www.w3.org/2000/svg" xmlns:xlink="http://www.w3.org/1999/xlink">
    <!-- Generator: Sketch 53.2 (72643) - https://sketchapp.com -->
    <title>logo-uefa-champions-league</title>
    <desc>Created with Sketch.</desc>
    <g id="Design-Assets" stroke="none" stroke-width="1" fill="none" fill-rule="evenodd">
        <g id="logo-uefa-champions-league" fill="#000000" fill-rule="nonzero">
            <path d="M52.9139045,56.4277843 C59.9678307,56.4197362 66.7250308,59.2629419 71.6479213,64.3104373 L72.4053371,63.5717201 C67.2788241,58.3256623 60.2507814,55.3677935 52.9124017,55.3677935 C45.574022,55.3677935 38.5459793,58.3256623 33.4194663,63.5717201 L34.176882,64.3104373 C39.1008942,59.2627721 45.8590739,56.4196103 52.9139045,56.4277843 L52.9139045,56.4277843 Z M52.9139045,67.5986297 C57.2363535,67.5923991 61.3503781,69.4537612 64.1969944,72.703586 L64.9934831,72.0039067 C61.9441564,68.525123 57.5408055,66.5299624 52.9124017,66.5299624 C48.2839979,66.5299624 43.8806469,68.525123 40.8313202,72.0039067 L41.627809,72.703586 C44.4751152,69.4529709 48.5904072,67.5915312 52.9139045,67.5986297 L52.9139045,67.5986297 Z M67.6414326,62.8780466 C67.4275939,62.682346 67.1023079,62.6733895 66.8780056,62.8570262 L60.9328933,66.7157726 L62.1892416,67.4214577 L66.4752528,64.640758 L65.8019944,66.9650146 L65.2489607,66.5386006 L64.1158427,67.2743149 L65.4262921,68.2802915 L65.0445787,69.5925656 L66.1596629,70.6165598 L68.1253371,63.7969388 C68.2475098,63.5346594 68.15623,63.2225319 67.9119382,63.0672303 L67.6414326,62.8780466 Z M41.6248034,67.5655977 C41.976735,67.3017103 42.2083502,66.9081021 42.2680056,66.4725364 C42.3130899,65.9860641 42.1778371,65.6497376 41.7149719,65.0791837 L39.3495506,62.1603499 L40.3985112,61.3105248 L42.9803371,64.499621 C43.4857657,65.0594677 43.7313234,65.8063822 43.6566011,66.5566181 C43.3872353,68.2277073 41.9109865,69.4344612 40.2181742,69.3673469 C39.468428,69.2850078 38.7878413,68.891625 38.3426685,68.2832945 L35.7668539,65.0881924 L36.8158146,64.2383673 L39.181236,67.1451895 C39.6441011,67.7127405 39.9476685,67.9139359 40.431573,67.9709913 C40.8704288,68.001697 41.3033415,67.8557204 41.6338202,67.5655977 L41.6248034,67.5655977 Z M47.2753652,60.058309 L47.575927,61.586793 L50.6446629,60.9591837 L50.8971348,62.1873761 L47.8253933,62.8119825 L47.9576404,63.4546064 C48.1019101,64.1662974 48.3844382,64.2894169 49.0216292,64.1602915 L51.4922472,63.6588047 L51.7447191,64.9080175 L49.2019663,65.424519 C48.023764,65.6617493 46.9597753,65.3284257 46.6622191,63.8660058 L45.7875843,59.5748397 C45.7507479,59.4419078 45.7732505,59.2995552 45.8492979,59.1844355 C45.9253453,59.0693158 46.0475061,58.9926785 46.1843258,58.9742566 L50.3651404,58.1244315 L50.6176124,59.3736443 L47.2753652,60.058309 Z M56.3853933,65.3434402 L55.5678652,65.1302332 C55.4323685,65.105435 55.3144823,65.0227213 55.2451453,64.9037998 C55.1758083,64.7848783 55.161944,64.6416237 55.207191,64.5116327 L56.3192697,60.271516 C56.6979775,58.8301166 57.7769944,58.5538484 58.9401685,58.8601458 L61.4498596,59.5177843 L61.1252528,60.7489796 L58.6907022,60.1123615 C58.0595225,59.9441983 57.7709831,60.0523032 57.5876404,60.7549854 L57.4073034,61.3795918 L60.4429775,62.1603499 L60.124382,63.361516 L57.1067416,62.5897668 L56.3853933,65.3434402 Z M81.8129213,101.168222 L82.1315169,101.168222 C82.3539326,101.168222 82.555309,101.168222 82.555309,100.885948 C82.555309,100.669738 82.3599438,100.6307 82.1735955,100.6307 L81.8129213,100.6307 L81.8129213,101.168222 Z M81.8129213,101.39344 L81.8129213,101.39344 L81.8129213,102.150175 L81.548427,102.150175 L81.548427,100.405481 L82.2156742,100.405481 C82.6274438,100.405481 82.8318258,100.55863 82.8318258,100.900962 C82.8384027,101.025604 82.7936044,101.1475 82.7078594,101.238274 C82.6221144,101.329048 82.5029036,101.380781 82.3779775,101.381429 L82.8739045,102.150175 L82.5733427,102.150175 L82.1134831,101.39344 L81.8129213,101.39344 Z M80.911236,101.273324 L80.911236,101.273324 C80.9244487,101.949618 81.4812754,102.488609 82.158258,102.480401 C82.8352406,102.472193 83.3788118,101.919861 83.3755941,101.243445 C83.3723764,100.567029 82.8235751,100.019884 82.1465449,100.018105 C81.8144757,100.015565 81.4955729,100.147688 81.2627486,100.384265 C81.0299244,100.620841 80.903087,100.941643 80.911236,101.273324 L80.911236,101.273324 Z M82.1465449,102.789796 L82.1465449,102.789796 C81.3222152,102.774926 80.663791,102.099291 80.6709203,101.275599 C80.6780497,100.451907 81.3480704,99.7877498 82.1725342,99.7871256 C82.996998,99.7865013 83.6680255,100.449643 83.6764045,101.273324 C83.6805299,101.678859 83.5202794,102.068815 83.2321194,102.354454 C82.9439594,102.640092 82.5524005,102.797117 82.1465449,102.789796 L82.1465449,102.789796 Z M73.9141573,91.9402624 L73.9141573,91.9402624 L73.9141573,98.4956268 C73.9141573,98.8499708 73.7638764,99.0121283 73.3310674,99.0301458 L73.3310674,99.375481 L80.0245787,99.375481 C80.0396067,98.6788047 80.0636517,98.0061516 80.1778652,96.9731487 L79.754073,96.9731487 C79.5406742,98.0361808 79.3242697,98.2613994 78.6389888,98.2613994 L75.7896629,98.2613994 L75.7896629,95.5827988 L77.4758146,95.5827988 C78.0438764,95.5827988 78.1340449,95.7719825 78.212191,96.2284257 L78.5548315,96.2284257 C78.518764,95.9281341 78.479691,95.3665889 78.479691,95.0272595 C78.479691,94.68793 78.518764,94.1413994 78.5548315,93.8260933 L78.212191,93.8260933 C78.1340449,94.2795335 78.0438764,94.4687172 77.4758146,94.4687172 L75.7896629,94.4687172 L75.7896629,92.0663848 L78.4947191,92.0663848 C79.18,92.0663848 79.3573315,92.3066181 79.4835674,93.0002915 L79.8292135,93.0002915 C79.7660955,92.3156268 79.7420506,91.7510787 79.7300281,91.0544023 L73.3100281,91.0544023 L73.3100281,91.4027405 C73.7428371,91.4027405 73.893118,91.5799125 73.893118,91.9342566 L73.9141573,91.9402624 Z M63.6319382,91.8892128 L63.6319382,91.8892128 L63.6319382,96.6188047 C63.6319382,98.7869096 64.8341854,99.5346356 67.1304775,99.5346356 C69.4267697,99.5346356 70.6320225,98.7959184 70.6320225,96.4416327 L70.6320225,91.8892128 C70.6320225,91.5318659 70.7823034,91.3697085 71.2151124,91.3576968 L71.2151124,91.0093586 C70.8063483,91.0483965 70.289382,91.0844315 69.7573876,91.0844315 C69.0961517,91.0844315 68.5761798,91.0483965 68.071236,91.0093586 L68.071236,91.3576968 C68.6152528,91.3817201 68.7535112,91.4838192 68.7535112,91.9762974 L68.7535112,96.6938776 C68.7535112,98.099242 68.1523876,98.4055394 67.1334831,98.4055394 C66.1145787,98.4055394 65.5104494,98.1262682 65.5104494,96.6938776 L65.5104494,91.9732945 C65.5104494,91.4808163 65.6487079,91.3727114 66.1957303,91.3546939 L66.1957303,91.0063557 C65.6877809,91.0453936 65.167809,91.0814286 64.5095787,91.0814286 C63.9745787,91.0814286 63.4576124,91.0453936 63.0488483,91.0063557 L63.0488483,91.3546939 C63.4816573,91.3546939 63.6499719,91.528863 63.6499719,91.8862099 L63.6319382,91.8892128 Z M58.6095506,96.393586 L58.6095506,96.393586 L58.6095506,97.2944606 C58.6095506,97.8770262 58.1136236,98.2944315 57.2149438,98.2944315 C55.7451966,98.2944315 54.8555337,96.5227114 54.8555337,94.9521866 C54.8555337,93.3216035 55.7181461,91.9732945 57.4824438,91.9732945 C58.5314045,91.9732945 59.6014045,92.5288338 59.7667135,93.6549271 L60.1333989,93.6549271 C60.0823034,92.7840816 60.0552528,92.0693878 60.0552528,91.4477843 C59.2905831,91.0274224 58.4269323,90.8200007 57.5545787,90.8472012 C54.8194663,90.8472012 52.9800281,92.5108163 52.9800281,95.258484 C52.9800281,97.5376968 54.5008708,99.5016035 56.8873315,99.5016035 C57.8224701,99.5102111 58.7224607,99.1459995 59.3880056,98.489621 L59.6885674,99.3364431 L60.4129213,99.3364431 L60.4129213,96.501691 C60.4129213,95.9341399 60.6413483,95.8200292 61.0861798,95.8020117 L61.0861798,95.4056268 C60.518118,95.4446647 59.959073,95.4867055 59.3880056,95.4867055 C58.8169382,95.4867055 58.3330337,95.4446647 57.8160674,95.4056268 L57.8160674,95.8320408 C58.3871348,95.8320408 58.6155618,95.8680758 58.6155618,96.3755685 L58.6095506,96.393586 Z M48.3964607,95.6969096 L46.5870787,95.6969096 C46.9176966,94.796035 47.3234551,93.80207 47.615,92.7900875 L47.6390449,92.7900875 C47.8239176,93.7733506 48.0698516,94.7441673 48.3754213,95.6969096 L48.3964607,95.6969096 Z M43.5183427,99.0001166 L43.5183427,99.0001166 L43.5183427,99.3454519 C43.9631742,99.306414 44.3959831,99.2673761 44.837809,99.2673761 C45.2796348,99.2673761 45.7124438,99.306414 46.1452528,99.3454519 L46.1452528,99.0001166 C45.7244663,98.9730904 45.5441292,98.8229446 45.5441292,98.594723 C45.5536428,98.4429636 45.5881708,98.2938149 45.6463202,98.1532945 L46.2053652,96.6518367 L48.6910112,96.6518367 L49.0967697,97.8770262 C49.1703857,98.0796817 49.2129443,98.2922835 49.2230056,98.5076385 C49.2230056,98.80793 49.0576966,98.8980175 48.5888202,98.988105 L48.5888202,99.3334402 C49.1358427,99.2944023 49.6798596,99.2553644 50.2238764,99.2553644 C50.7678933,99.2553644 51.3028933,99.2944023 51.8348876,99.3334402 L51.8348876,98.988105 C51.4531742,98.8890087 51.2668258,98.7208455 51.0714607,98.168309 L48.7421067,90.961312 C48.3483708,90.9973469 47.9426124,91.0363848 47.5398596,91.0363848 C47.1371067,91.0363848 46.7523876,90.9973469 46.3376124,90.961312 L46.3376124,91.3036443 C46.6802528,91.3036443 46.8185112,91.5078426 46.8185112,91.633965 C46.789618,91.8053726 46.7348958,91.9714166 46.6562079,92.1264431 L44.1825843,98.4415743 C44.1045406,98.7535252 43.8410832,98.9844414 43.5213483,99.021137 L43.5183427,99.0001166 Z M35.7398034,91.9282507 L35.7398034,91.9282507 L35.7398034,98.4956268 C35.7398034,98.8499708 35.5895225,99.0121283 35.1567135,99.0301458 L35.1567135,99.375481 L41.8532303,99.375481 C41.8532303,98.6788047 41.8923034,98.0061516 42.0035112,96.9731487 L41.5827247,96.9731487 C41.3663202,98.0361808 41.1529213,98.2613994 40.4676404,98.2613994 L37.6183146,98.2613994 L37.6183146,95.6308455 L39.2984551,95.6308455 C39.8695225,95.6308455 39.959691,95.8230321 40.0348315,96.2794752 L40.3804775,96.2794752 C40.3444101,95.9791837 40.3053371,95.4146356 40.3053371,95.078309 C40.3053371,94.7419825 40.3444101,94.1774344 40.3804775,93.8771429 L40.0348315,93.8771429 C39.959691,94.333586 39.8695225,94.5227697 39.2984551,94.5227697 L37.6183146,94.5227697 L37.6183146,92.0783965 L40.3233708,92.0783965 C41.0086517,92.0783965 41.1859831,92.3186297 41.3122191,93.0123032 L41.6578652,93.0123032 C41.5977528,92.3276385 41.5707022,91.7630904 41.5586798,91.066414 L35.1657303,91.066414 L35.1657303,91.4147522 C35.5985393,91.4147522 35.7488202,91.5919242 35.7488202,91.9462682 L35.7398034,91.9282507 Z M27.6817416,91.8892128 L27.6817416,91.8892128 L27.6817416,98.4956268 C27.6817416,98.8499708 27.5284551,99.0121283 27.0986517,99.0301458 L27.0986517,99.375481 L33.4104494,99.375481 C33.4407076,98.5486574 33.5412568,97.7258997 33.7110112,96.9160933 L33.2992416,96.9160933 C33.0858427,97.8800292 32.7432022,98.2583965 31.9046348,98.2583965 L29.5572472,98.2583965 L29.5572472,92.0483673 C29.5572472,91.6970262 29.6474157,91.3787172 30.2936236,91.3546939 L30.2936236,91.0063557 C29.9239326,91.0453936 29.1514888,91.0814286 28.6194944,91.0814286 C28.150618,91.0814286 27.654691,91.0453936 27.0986517,91.0063557 L27.0986517,91.3546939 C27.5284551,91.3546939 27.6817416,91.528863 27.6817416,91.8862099 L27.6817416,91.8892128 Z M9.91853933,85.3548688 L9.91853933,85.3548688 L10.125927,83.321895 C9.14910112,84.141691 7.68837079,84.6972303 6.67547753,84.6972303 C4.27098315,84.6972303 2.57882022,82.3579592 2.57882022,80.2919534 C2.57882022,77.5502915 4.17480337,75.9227114 6.23966292,75.9227114 C7.76050562,75.9227114 8.81848315,76.7244898 9.11002809,78.243965 L9.58191011,78.243965 C9.49474719,77.0427988 9.42561798,75.8566472 9.42561798,74.6134402 C8.46650024,74.2966496 7.45992409,74.1473227 6.45005618,74.1720117 C2.20912921,74.1720117 0,77.2379883 0,80.4180758 C0,83.5260933 2.20912921,86.5590379 6.12544944,86.5590379 C7.47998079,86.5482196 8.79977713,86.1296134 9.91252809,85.3578717 L9.91853933,85.3548688 Z M38.8926966,77.8055394 L38.8926966,77.8055394 L38.5320225,84.6581924 C38.4989607,85.3458601 38.2314607,85.4960058 37.5972753,85.5590671 L37.5972753,85.9674636 C38.1052247,85.9194169 38.7123596,85.8683673 39.3194944,85.8683673 C39.9266292,85.8683673 40.5517978,85.9194169 41.2070225,85.9674636 L41.2070225,85.5590671 C40.2211798,85.4419534 40.1400281,85.2587755 40.1400281,84.4419825 C40.1400281,84.0005539 40.1730899,83.5411079 40.188118,82.7062974 L40.3203652,77.9016327 L40.353427,77.9016327 L43.4912921,86.0605539 L44.8678652,86.0605539 L47.6089888,78.0007289 L47.6420506,78.0007289 L48.0207584,82.8804665 C48.0688483,83.4179883 48.1169382,84.1597085 48.1169382,84.5530904 C48.1169382,85.3068222 47.9035393,85.453965 47.1010393,85.5530612 L47.1010393,85.9614577 C47.7742978,85.9134111 48.480618,85.8623615 49.2049719,85.8623615 C49.9293258,85.8623615 50.6326404,85.9134111 51.3389607,85.9614577 L51.3389607,85.5530612 C51.0113483,85.5020117 50.5334551,85.4359475 50.5003933,85.0095335 L49.9774157,78.0067347 C49.9263202,77.4481924 49.8601966,76.7124781 49.8601966,76.2530321 C49.8601966,75.793586 49.9413483,75.6284257 50.518427,75.580379 L50.518427,75.1509621 C49.959382,75.2020117 49.385309,75.2500583 48.8082303,75.2500583 C48.2311517,75.2500583 47.678118,75.2020117 47.1040449,75.1509621 L44.5252247,82.754344 L41.6548596,75.1509621 C41.053736,75.2020117 40.4706461,75.2500583 39.8815449,75.2500583 C39.3221793,75.2454611 38.7634116,75.2123861 38.2074157,75.1509621 L38.2074157,75.580379 C38.8295787,75.6614577 38.9467978,75.7275219 38.9467978,76.2350146 C38.9467978,76.8926531 38.913736,77.3520991 38.8957022,77.8115452 L38.8926966,77.8055394 Z M24.8294101,85.9554519 L24.8294101,85.9554519 L24.8294101,85.5470554 C25.2433605,85.4958091 25.5828262,85.1948639 25.6830056,84.7903207 L28.8990169,76.6404082 C29.0017117,76.4400992 29.0736502,76.2254901 29.1124157,76.0037901 C29.1124157,75.8356268 28.9320787,75.5743732 28.4902528,75.5743732 L28.4902528,75.1449563 C29.0132303,75.1960058 29.5241854,75.2440525 30.0321348,75.2440525 C30.5400843,75.2440525 31.0660674,75.1960058 31.5770225,75.1449563 L34.5826404,84.4780175 C34.8291011,85.2017201 35.0755618,85.4149271 35.5684831,85.5470554 L35.5684831,85.9554519 C34.8801966,85.9074052 34.1738764,85.8563557 33.4825843,85.8563557 C32.7912921,85.8563557 32.0729494,85.9074052 31.3786517,85.9554519 L31.3786517,85.5470554 C31.9797753,85.4299417 32.1991854,85.3008163 32.1991854,84.9194461 C32.1848322,84.64051 32.1291223,84.3652468 32.0338764,84.1026531 L31.5108989,82.5111079 L28.3099157,82.5111079 L27.5885674,84.4479883 C27.5106359,84.6299247 27.4648736,84.8239854 27.4533146,85.0215452 C27.4533146,85.3218367 27.6847472,85.5140233 28.2257584,85.5470554 L28.2257584,85.9554519 C27.6667135,85.9074052 27.0926404,85.8563557 26.5366011,85.8563557 C25.9805618,85.8563557 25.4034831,85.9074052 24.8294101,85.9554519 L24.8294101,85.9554519 Z M28.7998315,81.261895 L31.1171629,81.261895 C30.7201601,80.0270586 30.401928,78.7683135 30.164382,77.4932362 L30.1313202,77.4932362 C29.7526124,78.8055102 29.2296348,80.1027697 28.7998315,81.261895 L28.7998315,81.261895 Z M13.1405618,76.2740525 L13.1405618,76.2740525 L13.1405618,84.8683965 C13.1405618,85.3248397 12.942191,85.5410496 12.3831461,85.5560641 L12.3831461,85.9764723 C13.1075,85.9284257 13.7476966,85.880379 14.3548315,85.880379 C14.9619663,85.880379 15.6021629,85.9284257 16.3235112,85.9764723 L16.3235112,85.5560641 C15.7644663,85.5410496 15.5691011,85.3248397 15.5691011,84.8683965 L15.5691011,81.0787172 L19.5365169,81.0787172 L19.5365169,84.8533819 C19.5365169,85.3098251 19.3381461,85.526035 18.7791011,85.5440525 L18.7791011,85.9614577 C19.5034551,85.9134111 20.1436517,85.8653644 20.7507865,85.8653644 C21.3579213,85.8653644 21.998118,85.9134111 22.7194663,85.9614577 L22.7194663,85.5440525 C22.163427,85.526035 21.9650562,85.3098251 21.9650562,84.8533819 L21.9650562,76.2740525 C21.9650562,75.8146064 22.163427,75.6013994 22.7194663,75.5863848 L22.7194663,75.1569679 C21.998118,75.2080175 21.3579213,75.2560641 20.7507865,75.2560641 C20.1436517,75.2560641 19.5034551,75.2080175 18.7791011,75.1569679 L18.7791011,75.5863848 C19.3381461,75.6013994 19.5365169,75.8146064 19.5365169,76.2740525 L19.5365169,79.5202041 L15.5691011,79.5202041 L15.5691011,76.2740525 C15.5691011,75.8146064 15.7674719,75.6013994 16.3235112,75.5863848 L16.3235112,75.1569679 C15.6021629,75.2080175 14.9619663,75.2560641 14.3548315,75.2530612 C13.7476966,75.2500583 13.1075,75.2080175 12.3831461,75.1569679 L12.3831461,75.5863848 C12.942191,75.6013994 13.1405618,75.8146064 13.1405618,76.2740525 L13.1405618,76.2740525 Z M98.5001124,82.2378426 L98.0733146,82.2378426 C98.1574719,83.2197959 98.2085674,84.3849271 98.2085674,85.7152187 C99.3884896,86.1194581 100.628074,86.3224859 101.875421,86.3158017 C104.631573,86.3158017 106.87677,85.1326531 106.87677,82.9044898 C106.87677,80.6763265 105.289803,80.0877551 103.57059,79.6012828 L101.797275,79.0937901 C101.102978,78.8895918 100.294466,78.6193294 100.294466,77.6914286 C100.294466,76.5262974 101.713118,76.256035 102.560702,76.256035 C104.081545,76.256035 105.34691,76.9857434 105.701573,78.5382507 L106.125365,78.5382507 C106.056236,77.6583965 105.990112,76.6283965 105.990112,75.4122157 C104.98165,75.0544768 103.919384,74.8716672 102.849242,74.871691 C100.330534,74.871691 97.7937921,75.6674636 97.7937921,78.28 C97.7937921,80.2769388 99.5190169,81.0006414 101.241236,81.5051312 L102.443483,81.8624781 C103.221938,82.0997085 104.270899,82.3669679 104.270899,83.3789504 C104.270899,84.6461808 102.834213,84.9344606 101.836348,84.9344606 C100.032978,84.9344606 98.8307303,84.0726239 98.4820787,82.2318367 L98.5001124,82.2378426 Z M85.702191,76.2620408 L85.702191,76.2620408 L85.702191,84.8533819 C85.702191,85.312828 85.5038202,85.526035 84.9477809,85.5410496 L84.9477809,85.952449 C85.4707584,85.9044023 86.0147753,85.8563557 86.5587921,85.8563557 C87.102809,85.8563557 87.5897191,85.9044023 88.133736,85.952449 L88.133736,85.5410496 C87.6889045,85.5410496 87.1478933,85.4779883 87.1478933,84.6401749 L87.1478933,77.4752187 L87.1809551,77.4752187 L92.6301404,85.9464431 L94.3764045,85.9464431 L94.3764045,76.2470262 C94.3764045,75.7875802 94.5717697,75.5713703 95.1308146,75.5593586 L95.1308146,75.1269388 C94.6048315,75.1779883 94.0638202,75.226035 93.522809,75.226035 C92.9817978,75.226035 92.4888764,75.1779883 91.9448596,75.1269388 L91.9448596,75.5593586 C92.3866854,75.5593586 92.9307022,75.6254227 92.9307022,76.4602332 L92.9307022,82.4480466 L92.8976404,82.4480466 L88.3651685,75.1359475 C87.8876576,75.216022 87.4034488,75.2492123 86.9194663,75.2350437 C86.3183427,75.2350437 85.6721348,75.1869971 84.9507865,75.1359475 L84.9507865,75.5683673 C85.5098315,75.5683673 85.7051966,75.7965889 85.7051966,76.256035 L85.702191,76.2620408 Z M65.9402528,76.256035 L65.9402528,76.256035 L65.9402528,84.850379 C65.9402528,85.3068222 65.7448876,85.5230321 65.1858427,85.5410496 L65.1858427,85.9494461 C65.907191,85.9013994 66.5503933,85.8503499 67.1545225,85.8503499 C67.7586517,85.8503499 68.4048596,85.9013994 69.1262079,85.9494461 L69.1262079,85.5410496 C68.5701685,85.5230321 68.3717978,85.3068222 68.3717978,84.850379 L68.3717978,76.2740525 C68.3717978,75.8146064 68.5701685,75.6044023 69.1262079,75.5863848 L69.1262079,75.1569679 C68.4048596,75.2080175 67.7646629,75.2560641 67.1545225,75.2560641 C66.544382,75.2560641 65.907191,75.2080175 65.1858427,75.1569679 L65.1858427,75.5863848 C65.7448876,75.6044023 65.9402528,75.8146064 65.9402528,76.2740525 L65.9402528,76.256035 Z M56.9624719,84.5620991 L56.9624719,84.5620991 L56.9624719,76.754519 L57.9813764,76.6494169 C59.424073,76.6494169 60.3407865,77.1719242 60.3407865,78.6493586 C60.3407865,80.0096793 59.6705337,80.9766181 57.9362921,80.9766181 C57.7198876,80.9766181 57.5094944,80.9285714 57.3592135,80.9285714 C57.2089326,80.9285714 57.1157584,80.9285714 57.1157584,81.0757143 C57.1157584,81.4210496 58.2969663,81.8294461 59.1024719,81.8294461 C61.2064045,81.8294461 62.760309,80.5862391 62.7633146,78.5502624 C62.7633146,76.6494169 61.6602528,75.2050146 58.6245787,75.2050146 L53.7765169,75.2050146 L53.7765169,75.6734694 C54.3355618,75.6914869 54.530927,75.9046939 54.530927,76.3671429 L54.530927,84.3819242 C54.530927,85.1506706 54.4167135,85.4299417 53.7765169,85.5470554 L53.7765169,85.9554519 C54.5008708,85.9074052 55.1410674,85.8563557 55.7482022,85.8563557 C56.3553371,85.8563557 56.9955337,85.9074052 58.0294663,85.9554519 L58.0294663,85.5470554 C57.0766854,85.3668805 56.9624719,85.1506706 56.9624719,84.5620991 L56.9624719,84.5620991 Z M76.7995506,76.5773469 L76.7995506,76.5773469 C79.2611517,76.5773469 80.0005337,79.3640525 80.0005337,81.261895 C80.0005337,83.0636443 79.0327247,84.5440816 77.3585955,84.5440816 C75.0112079,84.5440816 74.1576124,81.7423615 74.1576124,79.8234985 C74.1576124,78.5112245 74.758736,76.5773469 76.7995506,76.5773469 L76.7995506,76.5773469 Z M76.9798876,86.1176093 L76.9798876,86.1176093 C79.919382,86.1176093 82.429073,84.0365889 82.429073,80.5772303 C82.429073,77.6553936 80.4123034,75.0038192 77.0640449,75.0038192 C74.0403933,75.0038192 71.729073,77.2620117 71.729073,80.3790379 C71.729073,83.3819534 73.7127809,86.1176093 76.9798876,86.1176093 L76.9798876,86.1176093 Z M64.3112079,44.6773761 C64.6153541,43.1865937 64.6580673,41.6543645 64.4374438,40.1489796 C63.1810815,41.9869747 61.7255707,43.6808582 60.0973315,45.1998834 C57.9113475,45.3184543 55.7190061,45.2249261 53.5510955,44.9206122 C54.6021705,45.9424032 55.7908363,46.8126338 57.0826966,47.5061224 C54.5850281,49.0526239 52.9139045,49.1847522 52.9139045,49.1847522 C63.8453371,49.4159767 70.4096067,42.2780466 70.4096067,42.2780466 C68.5463917,43.4554243 66.4773053,44.2704961 64.3112079,44.680379 L64.3112079,44.6773761 Z M53.5510955,44.9236152 C51.6946834,44.1419328 49.8879305,43.2473914 48.1409831,42.2450146 C48.3137215,39.7467923 48.6531083,37.262869 49.156882,34.8097959 C47.3870607,36.4961926 45.4389984,37.9853771 43.3470225,39.2511079 C41.2956862,37.8418313 39.3434685,36.2937019 37.5041011,34.6176093 C38.2378786,36.7411109 39.1634125,38.7935466 40.2692697,40.7495627 C38.5380337,41.3951895 36.7587079,41.695481 35.1296629,41.2990962 C35.1296629,41.2990962 37.0532584,43.7014286 42.9893539,44.7194169 C44.6364326,46.668309 46.6411798,48.2808746 48.9825562,48.8394169 C48.9825562,48.8394169 48.2792416,48.0676676 48.1199438,45.1668513 C49.9334735,45.1883657 51.7467659,45.1071567 53.5510955,44.9236152 L53.5510955,44.9236152 Z M40.4195506,23.2245481 C38.2906555,23.2678066 36.1678915,23.4685501 34.0686798,23.8251312 C33.8030659,22.2125586 33.6274667,20.5864689 33.5426966,18.9544023 C32.3710341,20.7130376 31.4674926,22.6358911 30.8616854,24.6599417 C29.0132303,25.3416035 28.5473596,26.0052478 28.5473596,26.0052478 C28.8883061,27.0451602 29.4283097,28.0089495 30.1373315,28.8430029 C29.9119101,33.0891254 31.2854775,35.8938484 31.2854775,35.8938484 C31.6269545,34.3836899 32.2019157,32.9359284 32.9896629,31.6026822 C34.4042484,32.7299488 35.9125283,33.7345646 37.4980899,34.6055977 C36.4612011,32.6880309 35.6541359,30.6550475 35.0935955,28.5487172 C36.6725329,26.5843709 38.4603377,24.7971667 40.4255618,23.2185423 L40.4195506,23.2245481 Z M34.2971067,12.9876093 C35.7592611,11.5853486 37.3168947,10.2859792 38.9588202,9.09883382 C37.7681301,9.12209266 36.5836926,9.27719 35.4272191,9.5612828 C36.0626016,7.95218652 36.9139733,6.43685489 37.9579494,5.05690962 C37.9579494,5.05690962 30.3146629,10.477172 28.8539326,20.2336443 C28.8539326,20.2336443 29.4971348,18.4709329 31.6732022,15.8073469 C32.1636083,16.9298977 32.7872349,17.9895129 33.5306742,18.9634111 C33.5434462,16.9485945 33.796705,14.9424912 34.2850843,12.9876093 L34.2971067,12.9876093 Z M59.7005899,4.96381924 C57.8631702,4.03526151 55.936882,3.29380942 53.9508427,2.75067055 C55.231412,1.62770534 56.7425571,0.798501585 58.378118,0.321311953 C55.1391179,0.176420269 51.9049717,0.699797046 48.8773596,1.85880466 C44.9159551,1.54049563 42.3942416,2.23116618 42.3942416,2.23116618 C42.9953652,2.67559767 43.4912921,3.47137026 43.9992416,4.42930029 C42.0800221,5.70655195 40.3782688,7.28308562 38.9588202,9.09883382 C40.9663281,8.11985307 43.0640248,7.33744395 45.2225281,6.7625656 C45.4509551,7.18597668 45.6944101,7.60638484 45.9589045,8.01778426 C46.8120799,9.34205205 47.7936368,10.5792105 48.889382,11.7113703 C49.3240561,9.4911319 50.1999264,7.38051809 51.4651966,5.50434402 C54.1965428,5.1148199 56.9537635,4.9351192 59.7126124,4.96682216 L59.7005899,4.96381924 Z M76.5801404,16.3178426 C75.4477494,13.7754737 73.7286942,11.5372573 71.563764,9.78650146 C69.8866292,6.27309038 67.9570225,4.6455102 67.9570225,4.6455102 C68.0949056,5.54542253 68.0039489,6.46553135 67.6925281,7.32110787 C65.1905744,6.07623234 62.4898623,5.2784347 59.7126124,4.96381924 C62.0808478,6.54985045 64.2406989,8.42629311 66.1416292,10.549242 C64.9885409,12.3694404 63.6683906,14.078463 62.1982584,15.6541983 C64.5833166,15.0846072 67.0184622,14.7496861 69.4688483,14.6542274 C71.1821304,16.9947548 72.6905108,19.4783305 73.9772753,22.0774344 C74.0433178,19.6718614 73.8182701,17.2671253 73.3070225,14.915481 C75.7896629,15.3929446 76.5801404,16.3148397 76.5801404,16.3148397 L76.5801404,16.3178426 Z M77.8635393,26.4406706 C77.0893979,27.5765179 75.9937223,28.4558251 74.7166573,28.9661224 C74.596295,26.6581258 74.3494645,24.3584504 73.9772753,22.0774344 C72.9722007,24.7853398 71.8275332,27.4394627 70.5478652,30.0291545 C67.9616954,30.3205315 65.3496422,30.2963302 62.7693258,29.9570845 C64.8732584,32.4855394 66.5263483,33.9869971 67.8518258,35.0019825 C66.8220771,36.7849381 65.6775343,38.4992055 64.4254213,40.133965 C66.8457311,39.6126463 69.1376468,38.6142165 71.1670225,37.1971137 C71.9468158,37.7118864 72.6102312,38.3839112 73.1146629,39.1700292 C73.1146629,39.1700292 74.2477809,37.5664723 74.6385112,33.848863 C76.3125576,31.6808051 77.4208093,29.1309193 77.8635393,26.4286589 L77.8635393,26.4406706 Z M53.4248596,27.7829738 L53.4248596,27.7829738 C51.9611236,30.0291545 50.494382,32.4074636 49.1448596,34.8037901 C48.3924743,31.9384025 47.9114616,29.0086727 47.7081742,26.0532945 C45.3036798,25.2395044 42.8150281,24.3025948 40.4195506,23.2245481 C40.4195506,23.2245481 43.1877247,21.8221866 47.615,20.1075219 C47.7345815,17.2670398 48.1618693,14.4478653 48.889382,11.6993586 C48.889382,11.6993586 50.3471067,14.3779592 52.9950562,18.1796501 C55.7872753,17.2787755 58.9010955,16.3779009 62.1982584,15.6451895 C62.1982584,15.6451895 59.7486798,18.681137 56.6438764,23.0744023 C58.55572,25.4846981 60.6007165,27.7865088 62.7693258,29.9690962 C62.7693258,29.9690962 58.7808708,29.2724198 53.4248596,27.7949854 L53.4248596,27.7829738 Z"></path>
        </g>
    </g>
</svg>